{"title":"Relatos.Salvajes.[Wild.Tales].2014.1080p.BRRip.x264.AC3.HORiZON-","uid":11728174,"size":2108005425,"categoryP":"video","categoryS":"movies","magnet":"?xt=urn:btih:761d651546d7eee6003b3d86d6a665491467a3f4&amp;dn=Relatos.Salvajes.%5BWild.Tales%5D.2014.1080p.BRRip.x264.AC3.HORiZON-&amp;tr=udp%3A%2F%2Ftracker.openbittorrent.com%3A80&amp;tr=udp%3A%2F%2Fopen.demonii.com%3A1337&amp;tr=udp%3A%2F%2Ftracker.coppersurfer.tk%3A6969&amp;tr=udp%3A%2F%2Fexodus.desync.com%3A6969","seeders":22,"leechers":1,"uploader":"lletaif","files":4,"time":1425167479,"description":"Media info:\n\nGeneral\nUnique ID                                : 242330400287483951707534078167524635971 (0xB64F232EEF055E728A92681FAA24F543)\nComplete name                            : Relatos.Salvajes.[Wild.Tales].2014.1080p.BRRip.x264.AC3.HORiZON-ArtSubs.mkv\nFormat                                   : Matroska\nFormat version                           : Version 2\nFile size                                : 1.96 GiB\nDuration                                 : 2h 1mn\nOverall bit rate mode                    : Variable\nOverall bit rate                         : 2 304 Kbps\nMovie name                               : RELATOS_SALVAJES-.Title6\nEncoded date                             : UTC 2015-02-27 22:56:22\nWriting application                      : DVDFab 9.1.4.0\nWriting library                          : libebml v0.7.8 + libmatroska v0.8.1\n\nVideo\nID                                       : 1\nFormat                                   : AVC\nFormat/Info                              : Advanced Video Codec\nFormat profile                           : &lt;a class=&quot;__cf_email__&quot; href=&quot;/cdn-cgi/l/email-protection&quot; data-cfemail=&quot;fbb3929c93bbb7cfd5ca&quot;&gt;[email&amp;#160;protected]&lt;/a&gt;&lt;script cf-hash='f9e31' type=&quot;text/javascript&quot;&gt;\n/* &lt;![CDATA[ */!function(){try{var t=&quot;currentScript&quot;in document?document.currentScript:function(){for(var t=document.getElementsByTagName(&quot;script&quot;),e=t.length;e--;)if(t[e].getAttribute(&quot;cf-hash&quot;))return t[e]}();if(t&amp;&amp;t.previousSibling){var e,r,n,i,c=t.previousSibling,a=c.getAttribute(&quot;data-cfemail&quot;);if(a){for(e=&quot;&quot;,r=parseInt(a.substr(0,2),16),n=2;a.length-n;n+=2)i=parseInt(a.substr(n,2),16)^r,e+=String.fromCharCode(i);e=document.createTextNode(e),c.parentNode.replaceChild(e,c)}}}catch(u){}}();/* ]]&gt; */&lt;/script&gt;\nFormat settings, CABAC                   : Yes\nFormat settings, ReFrames                : 2 frames\nCodec ID                                 : V_MPEG4/ISO/AVC\nDuration                                 : 2h 1mn\nBit rate mode                            : Variable\nBit rate                                 : 1 810 Kbps\nMaximum bit rate                         : 2 844 Kbps\nWidth                                    : 1 152 pixels\nHeight                                   : 484 pixels\nDisplay aspect ratio                     : 2.40:1\nFrame rate mode                          : Constant\nFrame rate                               : 23.976 fps\nColor space                              : YUV\nChroma subsampling                       : 4:2:0\nBit depth                                : 8 bits\nScan type                                : Progressive\nBits/(Pixel*Frame)                       : 0.135\nStream size                              : 1.54 GiB (79%)\nDefault                                  : Yes\nForced                                   : No\n\nAudio\nID                                       : 2\nFormat                                   : AC-3\nFormat/Info                              : Audio Coding 3\nMode extension                           : CM (complete main)\nFormat settings, Endianness              : Big\nCodec ID                                 : A_AC3\nDuration                                 : 2h 1mn\nBit rate mode                            : Constant\nBit rate                                 : 448 Kbps\nChannel(s)                               : 6 channels\nChannel positions                        : Front: L C R, Side: L R, LFE\nSampling rate                            : 48.0 KHz\nBit depth                                : 16 bits\nCompression mode                         : Lossy\nStream size                              : 391 MiB (19%)\nLanguage                                 : Spanish\nDefault                                  : Yes\nForced                                   : No\n\nMenu\n00:00:00.000                             : en:(01)00:00:00:000\n00:08:48.819                             : en:(02)00:08:48:819\n00:20:34.274                             : en:(03)00:20:34:274\n00:38:56.334                             : en:(04)00:38:56:334\n01:01:52.709                             : en:(05)01:01:52:709\n01:25:29.124                             : en:(06)01:25:29:124","torrent":{"xt":"urn:btih:761d651546d7eee6003b3d86d6a665491467a3f4","amp;dn":"Relatos.Salvajes.%5BWild.Tales%5D.2014.1080p.BRRip.x264.AC3.HORiZON-","amp;tr":["udp%3A%2F%2Ftracker.openbittorrent.com%3A80","udp%3A%2F%2Fopen.demonii.com%3A1337","udp%3A%2F%2Ftracker.coppersurfer.tk%3A6969","udp%3A%2F%2Fexodus.desync.com%3A6969"],"infoHash":"761d651546d7eee6003b3d86d6a665491467a3f4","infoHashBuffer":{"type":"Buffer","data":[118,29,101,21,70,215,238,230,0,59,61,134,214,166,101,73,20,103,163,244]},"announce":[],"urlList":[]}}